<svg xmlns="http://www.w3.org/2000/svg" width="290.588" height="227.64" viewBox="0 0 290.588 227.64"><defs><style>.a{fill:#74c66d;}</style></defs><path class="a" d="M98.852,156.982V133.046a8.115,8.115,0,0,0-8.115-8.115H53.568a8.115,8.115,0,0,0-8.115,8.115v21.993a8.282,8.282,0,0,0,2.6,5.994q4.812,4.581,9.366,9.423a8.147,8.147,0,0,1,2.194,5.589q0,6.2,0,12.4a8.117,8.117,0,0,0,8.116,8.117H90.737a8.116,8.116,0,0,0,8.115-8.116Z"/><path class="a" d="M119.893,164.39v14.041a8.11,8.11,0,0,0,8.115,8.11h33.623a8.115,8.115,0,0,0,8.115-8.115V164.384a8.115,8.115,0,0,0-8.115-8.115H128.008A8.12,8.12,0,0,0,119.893,164.39Z"/><rect class="a" y="213.681" width="32.84" height="13.959" rx="6.979"/><path class="a" d="M114.412,131.982V120.845a8.116,8.116,0,0,1,8.115-8.116h83.691a8.12,8.12,0,0,0,8.116-8.12c0-7.213,0-12.275,0-19.488A8.12,8.12,0,0,1,222.448,77h43.1a8.109,8.109,0,0,1,8.115,8.107V176.99a8.1,8.1,0,0,1-8.109,8.107l-71.911,0a8.111,8.111,0,0,1-8.109-8.116V148.212a8.115,8.115,0,0,0-8.115-8.115h-54.9A8.115,8.115,0,0,1,114.412,131.982Z"/><path class="a" d="M282.473,0H231.948a8.115,8.115,0,0,0-8.115,8.115V53.107a8.115,8.115,0,0,0,8.115,8.115h50.524a8.116,8.116,0,0,0,8.116-8.115v-45A8.11,8.11,0,0,0,282.473,0Z"/></svg>