<?xml version="1.0" encoding="UTF-8"?>
<svg id="_レイヤー_1" data-name="レイヤー 1" xmlns="http://www.w3.org/2000/svg" viewBox="0 0 1298.14 86.4">
  <path d="M97.68,76.68v9.72H14.4c-8.04,0-14.4-6.36-14.4-14.4V14.4C0,6.36,6.36,0,14.4,0h57.6c8.04,0,14.4,6.36,14.4,14.4v57.6c0,1.08-.24,2.88-.48,4.68h11.76ZM72,76.68c2.52,0,4.68-2.16,4.68-4.68V14.4c0-2.52-2.16-4.68-4.68-4.68H14.4c-2.52,0-4.68,2.16-4.68,4.68v57.6c0,2.52,2.16,4.68,4.68,4.68h57.6Z"/>
  <path d="M182.76,0h9.72v72c0,8.04-6.36,14.4-14.4,14.4h-57.6c-8.04,0-14.4-6.36-14.4-14.4V0h9.72v72c0,2.52,2.16,4.68,4.68,4.68h57.6c2.52,0,4.68-2.16,4.68-4.68V0Z"/>
  <path d="M205.8,0h9.72v86.4h-9.72V0Z"/>
  <path d="M308.75,0h9.72v86.4h-13.32L241.79,11.04v75.36h-9.72V0h13.32l63.36,75.36V0Z"/>
  <path d="M413.99,0v9.72h-38.28v76.68h-9.72V9.72h-38.4V0h86.4Z"/>
  <path d="M502.07,9.72h-69.12v28.56h55.56v9.84h-55.56v28.56h69.12v9.72h-78.84V0h78.84v9.72Z"/>
  <path d="M596.99,0v9.72h-38.28v76.68h-9.72V9.72h-38.4V0h86.4Z"/>
  <path d="M710.63.12c8.04,0,14.4,6.48,14.4,14.4v25.32c0,7.92-6.36,14.4-14.4,14.4h-57.6c-1.08,0-2.88-.24-4.68-.48v32.64h-9.72V.12h72ZM715.31,14.52c0-2.52-2.16-4.68-4.68-4.68h-57.6c-2.52,0-4.68,2.16-4.68,4.68v25.32c0,2.52,2.16,4.56,4.68,4.56h57.6c2.52,0,4.68-2.04,4.68-4.56V14.52Z"/>
  <path d="M819.82,39.84c0,7.92-6.36,14.4-14.4,14.4h-13.2l27.12,32.16h-12.84l-27-32.16h-31.68c-1.2,0-2.88-.24-4.68-.48v32.64h-9.72V.12h72c8.04,0,14.4,6.48,14.4,14.4v25.32ZM805.42,44.4c2.52,0,4.56-2.04,4.56-4.56V14.52c0-2.52-2.04-4.68-4.56-4.68h-57.6c-2.52,0-4.68,2.16-4.68,4.68v25.32c0,2.52,2.16,4.56,4.68,4.56h57.6Z"/>
  <path d="M904.3,0c8.04,0,14.4,6.36,14.4,14.4v57.6c0,8.04-6.36,14.4-14.4,14.4h-57.6c-8.04,0-14.4-6.36-14.4-14.4V14.4c0-8.04,6.36-14.4,14.4-14.4h57.6ZM904.3,76.68c2.52,0,4.68-2.16,4.68-4.68V14.4c0-2.52-2.16-4.68-4.68-4.68h-57.6c-2.52,0-4.68,2.16-4.68,4.68v57.6c0,2.52,2.16,4.68,4.68,4.68h57.6Z"/>
  <path d="M1002.34,0h9.72v72c0,8.04-6.36,14.4-14.4,14.4h-57.6c-8.04,0-14.4-6.36-14.4-14.4v-6.84h9.72v6.84c0,2.52,2.16,4.68,4.68,4.68h57.6c2.52,0,4.68-2.16,4.68-4.68V0Z"/>
  <path d="M1104.58,9.72h-69.12v28.56h55.56v9.84h-55.56v28.56h69.12v9.72h-78.84V0h78.84v9.72Z"/>
  <path d="M1131.82,9.72c-2.52,0-4.68,2.16-4.68,4.68v57.6c0,2.52,2.16,4.68,4.68,4.68h71.76v9.72h-71.76c-8.04,0-14.4-6.36-14.4-14.4V14.4c0-8.04,6.36-14.4,14.4-14.4h71.76v9.72h-71.76Z"/>
  <path d="M1298.14,0v9.72h-38.28v76.68h-9.72V9.72h-38.4V0h86.4Z"/>
  <rect x="21.14" y="21.32" width="8.86" height="8.86"/>
  <rect x="38.55" y="21.32" width="8.86" height="8.86"/>
</svg>